HIERARCHY
ROOT Pelvis
{
	OFFSET 0.000000 0.941512 0.000000
	CHANNELS 6 Xposition Yposition Zposition Zrotation Yrotation Xrotation 
	JOINT Pelvis_L_Hip
	{
		OFFSET 0.000000 0.000000 0.000000
		CHANNELS 3 Zrotation Yrotation Xrotation
		JOINT L_Hip
		{
			OFFSET 0.062321 -0.080322 -0.016990
			CHANNELS 3 Zrotation Yrotation Xrotation
			JOINT L_Knee
			{
				OFFSET 0.093051 -0.381305 -0.029784
				CHANNELS 3 Zrotation Yrotation Xrotation
				JOINT L_Ankle
				{
					OFFSET -0.010371 -0.431000 -0.033614
					CHANNELS 3 Zrotation Yrotation Xrotation
					End Site #name: L_Foot
					{
						OFFSET 0.069299 -0.038670 0.119418
					}
				}
			}
		}
	}
	JOINT Pelvis_R_Hip
	{
		OFFSET 0.000000 0.000000 0.000000
		CHANNELS 3 Zrotation Yrotation Xrotation
		JOINT R_Hip
		{
			OFFSET -0.055334 -0.094904 -0.002373
			CHANNELS 3 Zrotation Yrotation Xrotation
			JOINT R_Knee
			{
				OFFSET -0.064207 -0.384370 -0.019592
				CHANNELS 3 Zrotation Yrotation Xrotation
				JOINT R_Ankle
				{
					OFFSET 0.025418 -0.419734 -0.065953
					CHANNELS 3 Zrotation Yrotation Xrotation
					End Site #name: R_Foot
					{
						OFFSET -0.057233 -0.039888 0.132134
					}
				}
			}
		}
	}
	JOINT Pelvis_Spine1
	{
		OFFSET 0.000000 0.000000 0.000000
		CHANNELS 3 Zrotation Yrotation Xrotation
		JOINT Spine1
		{
			OFFSET -0.005562 0.124093 -0.043360
			CHANNELS 3 Zrotation Yrotation Xrotation
			JOINT Spine2
			{
				OFFSET 0.012244 0.139499 0.029894
				CHANNELS 3 Zrotation Yrotation Xrotation
				JOINT Spine3
				{
					OFFSET -0.002556 0.056561 0.009225
					CHANNELS 3 Zrotation Yrotation Xrotation
					JOINT Spine3_Neck
					{
						OFFSET 0.000000 0.000000 0.000000
						CHANNELS 3 Zrotation Yrotation Xrotation
						JOINT Neck
						{
							OFFSET -0.005205 0.217920 -0.024551
							CHANNELS 3 Zrotation Yrotation Xrotation
							End Site #name: Head
							{
								OFFSET 0.002365 0.091850 0.046637
							}
						}
					}
					JOINT Spine3_L_Collar
					{
						OFFSET 0.000000 0.000000 0.000000
						CHANNELS 3 Zrotation Yrotation Xrotation
						JOINT L_Collar
						{
							OFFSET 0.072225 0.116603 -0.009480
							CHANNELS 3 Zrotation Yrotation Xrotation
							JOINT L_Shoulder
							{
								OFFSET 0.115937 -0.058643 -0.021018
								CHANNELS 3 Zrotation Yrotation Xrotation
								JOINT L_Elbow
								{
									OFFSET 0.021994 -0.254722 -0.024492
									CHANNELS 3 Zrotation Yrotation Xrotation
									End Site #name: L_Wrist
									{
										OFFSET 0.048810 -0.240214 0.103329
									}
								}
							}
						}
					}
					JOINT Spine3_R_Collar
					{
						OFFSET 0.000000 0.000000 0.000000
						CHANNELS 3 Zrotation Yrotation Xrotation
						JOINT R_Collar
						{
							OFFSET -0.073372 0.120704 -0.024611
							CHANNELS 3 Zrotation Yrotation Xrotation
							JOINT R_Shoulder
							{
								OFFSET -0.108089 -0.054969 -0.020504
								CHANNELS 3 Zrotation Yrotation Xrotation
								JOINT R_Elbow
								{
									OFFSET -0.033684 -0.260739 0.009889
									CHANNELS 3 Zrotation Yrotation Xrotation
									End Site #name: R_Wrist
									{
										OFFSET -0.067980 -0.232763 0.118463
									}
								}
							}
						}
					}
				}
			}
		}
	}
}
MOTION
Frames: 11
Frame Time: 0.041667
0.000000 0.954008 0.000000 -3.286992 -2.889407 0.771843 0.000000 0.000000 0.000000 -5.515147 -0.334783 -2.613960 5.789408 -0.969472 6.832018 1.331141 -8.894995 -6.684537 0.000000 0.000000 0.000000 4.781313 -0.395911 0.637119 -6.376359 0.384011 -5.218183 7.935476 28.097195 0.223547 0.000000 0.000000 0.000000 4.754458 -0.345177 -5.358094 -6.369903 4.817929 32.126610 2.651561 1.793272 -34.681820 0.000000 0.000000 0.000000 0.617130 -1.171624 26.742738 0.000000 0.000000 0.000000 19.082318 -0.952914 2.808407 -11.095264 0.724741 0.992425 -9.581221 -3.775238 1.407998 0.000000 0.000000 0.000000 -15.414834 0.698491 2.571306 13.881085 -0.444906 6.448581 6.822834 3.176553 0.953990 
0.001566 0.953652 -0.000331 -3.318942 -2.851173 0.959887 0.000000 0.000000 0.000000 -5.505520 -0.453956 -3.024364 5.646476 -0.974754 7.184549 1.350846 -8.872616 -6.706746 0.000000 0.000000 0.000000 4.628858 -0.319638 0.306048 -6.292658 0.400051 -4.999717 7.877033 28.174880 0.102289 0.000000 0.000000 0.000000 4.846685 -0.367736 -5.315863 -6.594342 4.866315 31.717169 2.736182 1.936497 -34.195800 0.000000 0.000000 0.000000 0.477282 -1.081591 26.790504 0.000000 0.000000 0.000000 19.350667 -0.959041 2.879363 -11.586209 0.707877 0.732667 -9.340754 -3.681757 1.369816 0.000000 0.000000 0.000000 -15.782388 0.987212 2.444446 14.270874 -0.400172 6.293951 6.696909 3.088558 1.013930 
0.004025 0.953574 -0.000511 -3.390734 -2.870374 1.045625 0.000000 0.000000 0.000000 -5.600124 -0.520111 -3.269382 5.630147 -0.993304 7.480461 1.416085 -8.816397 -6.792714 0.000000 0.000000 0.000000 4.506382 -0.271045 0.100971 -6.267995 0.418631 -4.812226 7.824981 28.253825 -0.010720 0.000000 0.000000 0.000000 4.856858 -0.398699 -5.096924 -6.777843 4.940066 31.607057 2.853631 2.202702 -33.991952 0.000000 0.000000 0.000000 0.344995 -1.007686 26.827581 0.000000 0.000000 0.000000 19.398223 -0.776861 3.052740 -11.823742 0.652163 0.374817 -9.311569 -3.714243 1.224331 0.000000 0.000000 0.000000 -15.945235 1.347315 2.210380 14.353123 -0.343537 6.070845 6.556388 2.958336 1.166635 
0.007492 0.953367 0.000002 -3.472077 -2.832776 1.152298 0.000000 0.000000 0.000000 -5.777402 -0.566820 -3.462807 5.661212 -1.012109 7.678384 1.515583 -8.790944 -6.945793 0.000000 0.000000 0.000000 4.423721 -0.239068 -0.036101 -6.371529 0.442065 -4.715564 7.760986 28.214194 -0.093559 0.000000 0.000000 0.000000 4.803202 -0.410606 -4.939190 -6.965029 5.012601 31.511111 3.022388 2.481399 -33.739388 0.000000 0.000000 0.000000 0.291369 -0.999770 26.918223 0.000000 0.000000 0.000000 19.475445 -0.554592 3.266808 -12.057498 0.615375 0.114424 -9.384002 -3.856516 0.871184 0.000000 0.000000 0.000000 -16.037247 1.649675 1.997801 14.371586 -0.289515 5.842520 6.298463 2.821000 1.178007 
0.011865 0.953116 0.000538 -3.523317 -2.658508 1.359914 0.000000 0.000000 0.000000 -6.025097 -0.669467 -3.859860 5.677667 -1.037190 7.991165 1.636332 -8.833777 -7.155616 0.000000 0.000000 0.000000 4.293736 -0.189322 -0.250732 -6.530875 0.469920 -4.642637 7.674622 27.991525 -0.138876 0.000000 0.000000 0.000000 4.596561 -0.403355 -4.723837 -7.129637 5.049829 31.324607 3.227726 2.733007 -33.555997 0.000000 0.000000 0.000000 0.306324 -1.051045 27.034135 0.000000 0.000000 0.000000 19.557051 -0.368063 3.459392 -12.219729 0.590891 -0.056698 -9.527602 -4.034374 0.508801 0.000000 0.000000 0.000000 -16.089036 1.830574 1.858279 14.341633 -0.232037 5.597512 6.121716 2.763927 1.086464 
0.016896 0.952722 0.001643 -3.640226 -2.397561 1.655674 0.000000 0.000000 0.000000 -6.246325 -0.810911 -4.383827 5.706765 -1.072506 8.416267 1.740631 -8.993164 -7.381148 0.000000 0.000000 0.000000 4.225465 -0.160185 -0.384273 -6.706762 0.473820 -4.791606 7.462609 27.742808 -0.372320 0.000000 0.000000 0.000000 4.416654 -0.382056 -4.649041 -7.292441 5.084592 31.166470 3.436048 2.979970 -33.369810 0.000000 0.000000 0.000000 0.310666 -1.103445 27.189002 0.000000 0.000000 0.000000 19.695168 -0.242013 3.626321 -12.384926 0.575189 -0.181938 -9.628315 -4.166417 0.234364 0.000000 0.000000 0.000000 -16.233040 1.997618 1.742457 14.423337 -0.210574 5.504842 5.987324 2.809250 0.776453 
0.022631 0.952614 0.003285 -3.805346 -2.089225 1.835625 0.000000 0.000000 0.000000 -6.523447 -0.890916 -4.702691 5.868555 -1.124776 8.780405 1.856789 -9.321072 -7.690028 0.000000 0.000000 0.000000 4.205479 -0.061899 -0.862271 -6.987957 0.623268 -3.840870 6.620175 27.481300 -1.599922 0.000000 0.000000 0.000000 4.246009 -0.368257 -4.514973 -7.423937 5.101746 31.021956 3.665764 3.251646 -33.117166 0.000000 0.000000 0.000000 0.336448 -1.178449 27.276139 0.000000 0.000000 0.000000 19.721400 -0.106305 3.782277 -12.452752 0.542437 -0.373951 -9.620812 -4.175501 0.194611 0.000000 0.000000 0.000000 -16.365157 2.069640 1.685052 14.364140 -0.254792 5.629246 5.867424 3.044175 -0.026797 
0.028812 0.953029 0.005036 -4.025485 -1.802870 1.889090 0.000000 0.000000 0.000000 -6.751575 -0.913504 -4.816256 5.979173 -1.168672 9.121617 2.097802 -9.696998 -8.220623 0.000000 0.000000 0.000000 4.282479 0.303343 -2.649198 -7.425458 1.174034 0.049921 4.786624 27.098641 -4.386671 0.000000 0.000000 0.000000 3.928189 -0.351508 -4.176768 -7.410513 5.026779 30.703367 3.923853 3.480793 -32.682890 0.000000 0.000000 0.000000 0.583127 -1.405591 27.083131 0.000000 0.000000 0.000000 19.808492 0.127889 4.022579 -12.481498 0.495695 -0.646373 -9.606802 -4.154439 0.240315 0.000000 0.000000 0.000000 -16.473815 1.901035 1.798731 14.159622 -0.274610 5.627035 5.653190 3.315232 -1.062737 
0.034743 0.952941 0.007088 -4.001055 -1.534034 1.679336 0.000000 0.000000 0.000000 -7.264360 -0.768682 -4.408502 6.070125 -1.180880 9.081505 2.387625 -10.109076 -8.839611 0.000000 0.000000 0.000000 4.262149 1.075727 -6.372561 -7.835437 2.359472 8.362762 1.866691 25.604356 -8.642223 0.000000 0.000000 0.000000 3.104521 -0.281065 -3.465591 -7.121635 4.822237 30.350947 4.069802 3.439802 -32.234151 0.000000 0.000000 0.000000 1.258540 -1.929065 26.798153 0.000000 0.000000 0.000000 20.253777 0.113261 4.135824 -12.466668 0.529384 -0.521575 -9.791936 -4.340791 -0.081970 0.000000 0.000000 0.000000 -16.581187 1.570177 2.048450 14.039880 -0.234254 5.415092 5.085586 3.369798 -2.043957 
0.038269 0.951063 0.009221 -3.653860 -1.719676 1.288296 0.000000 0.000000 0.000000 -7.820229 -0.429440 -3.383399 5.813823 -1.091029 8.428338 2.618974 -10.271805 -9.295431 0.000000 0.000000 0.000000 4.316415 2.305046 -12.266332 -7.722420 4.086885 20.685095 -1.016558 22.274594 -12.444637 0.000000 0.000000 0.000000 1.885963 -0.180804 -2.226177 -6.746873 4.625742 30.077391 3.919143 3.095249 -32.060047 0.000000 0.000000 0.000000 2.098238 -2.504216 26.433940 0.000000 0.000000 0.000000 20.794726 -0.190499 3.987805 -11.818635 0.618545 0.049886 -10.240090 -4.723445 -0.627428 0.000000 0.000000 0.000000 -16.423786 1.295487 2.247638 13.986420 -0.135913 5.027461 4.393305 3.268461 -2.812627 
0.039414 0.949037 0.013390 -3.398508 -2.306178 0.883333 0.000000 0.000000 0.000000 -7.964802 0.036727 -1.909428 5.302361 -0.934852 7.319828 2.658298 -10.298875 -9.415591 0.000000 0.000000 0.000000 4.513358 3.619131 -18.345349 -6.251453 5.010615 30.700551 -2.637448 19.616499 -14.451747 0.000000 0.000000 0.000000 1.156466 -0.160021 -0.955711 -6.388134 4.487324 29.964716 3.279707 2.381684 -32.071941 0.000000 0.000000 0.000000 2.659881 -2.818709 26.276743 0.000000 0.000000 0.000000 21.033769 -0.606624 3.618692 -10.514105 0.671600 0.675449 -10.460943 -4.787226 -0.505736 0.000000 0.000000 0.000000 -15.921402 0.889352 2.500335 13.844691 -0.003950 4.522009 4.051030 3.166439 -3.056953 
